<svg xmlns="http://www.w3.org/2000/svg" viewBox="0 0 800 800" preserveAspectRatio="xMidYMid slice">
  <rect width="800" height="800" fill="#FBF6EC"/>
<g transform="translate(400, 400)">
  <ellipse cx="0" cy="344" rx="190" ry="22" fill="#000" opacity="0.1"/>
  <rect x="-210" y="-330" width="420" height="660" rx="22" fill="#7B2D26" stroke="#2A1810" stroke-width="2"/>
  <!-- Top dark band -->
  <rect x="-210" y="-330" width="420" height="60" rx="22" fill="#2A1810" opacity="0.22"/>
  <!-- Label panel -->
  <rect x="-180" y="-260" width="360" height="180" rx="12" fill="#FBF6EC"/>
  <text x="0" y="-214" font-family="Georgia, serif" font-size="34" font-weight="700" fill="#7B2D26" text-anchor="middle">Safiya</text>
  <text x="0" y="-190" font-family="Inter, sans-serif" font-size="11" fill="#D4A24C" text-anchor="middle" letter-spacing="2.5">HEALTHY · PURE · HALAL</text>
  <text x="0" y="-142" font-family="Georgia, serif" font-size="24" font-weight="700" fill="#7B2D26" text-anchor="middle">Beras Merah</text>
  <text x="0" y="-116" font-family="Inter, sans-serif" font-size="11" fill="#2A1810" opacity="0.6" text-anchor="middle" letter-spacing="2">PREMIUM GRADE</text>
  <!-- Window with art -->
  <ellipse cx="0" cy="10" rx="120" ry="60" fill="#FBF6EC" opacity="0.6"/>
  <g transform="translate(0,-10)"><g transform="translate(0,30)"><ellipse cx="-30" cy="0" rx="8" ry="3" fill="#9B3C24" transform="rotate(20 -30 0)"/><ellipse cx="-10" cy="10" rx="8" ry="3" fill="#9B3C24" transform="rotate(-20 -10 10)"/><ellipse cx="10" cy="-6" rx="8" ry="3" fill="#9B3C24" transform="rotate(15 10 -6)"/><ellipse cx="30" cy="6" rx="8" ry="3" fill="#9B3C24" transform="rotate(-30 30 6)"/></g></g>
  <!-- Size badge -->
  <rect x="-100" y="238" width="200" height="42" rx="21" fill="#D4A24C"/>
  <text x="0" y="265" font-family="Inter, sans-serif" font-size="18" font-weight="800" fill="#FFFFFF" text-anchor="middle">1KG NETTO</text>
  <text x="0" y="300" font-family="Inter, sans-serif" font-size="11" font-weight="600" fill="#FBF6EC" text-anchor="middle" letter-spacing="3">HALAL · BPOM RI</text>
</g>
</svg>
