<svg xmlns="http://www.w3.org/2000/svg" viewBox="0 0 800 800" preserveAspectRatio="xMidYMid slice">
  <rect width="800" height="800" fill="#FBF6EC"/>
<g transform="translate(400,400)">
  <path d="M -200 -260 Q -200 -300 -160 -300 L 160 -300 Q 200 -300 200 -260 L 200 260 Q 200 300 160 300 L -160 300 Q -200 300 -200 260 Z" fill="#7A2A35" stroke="#2A1810" stroke-width="2"/>
  <path d="M -200 -260 Q -200 -300 -160 -300 L 160 -300 Q 200 -300 200 -260 L 200 -180 L -200 -180 Z" fill="#2A1810" opacity="0.2"/>
  <rect x="-160" y="-140" width="320" height="160" rx="10" fill="#FBF6EC"/>
  <text x="0" y="-90" font-family="Georgia, serif" font-size="32" font-weight="700" fill="#7A2A35" text-anchor="middle">Safiya</text>
  <text x="0" y="-58" font-family="Georgia, serif" font-size="14" font-style="italic" fill="#D4A24C" text-anchor="middle">healthy · tasty · authentic</text>
  <text x="0" y="-20" font-family="Georgia, serif" font-size="26" font-weight="700" fill="#7A2A35" text-anchor="middle">Berry Yogurt Cereal</text>
  <g transform="translate(0,90)">

    <circle cx="-60" cy="20" r="22" fill="#A8424B"/>
    <circle cx="-30" cy="36" r="20" fill="#8E2A30"/>
    <circle cx="0" cy="14" r="18" fill="#D4A24C"/>
    <ellipse cx="30" cy="30" rx="22" ry="14" fill="#C9A961" transform="rotate(20 30 30)"/>
    <circle cx="60" cy="14" r="18" fill="#5B341E"/>

  </g>
  <rect x="-70" y="190" width="140" height="38" rx="19" fill="#D4A24C"/>
  <text x="0" y="216" font-family="Inter, sans-serif" font-size="18" font-weight="700" fill="#2A1810" text-anchor="middle">300g</text>
  <text x="0" y="260" font-family="Inter, sans-serif" font-size="10" font-weight="600" fill="#FBF6EC" text-anchor="middle" letter-spacing="3">HALAL · BPOM RI</text>
</g>
</svg>
