<svg xmlns="http://www.w3.org/2000/svg" viewBox="0 0 800 800" preserveAspectRatio="xMidYMid slice">
  <rect width="800" height="800" fill="#FBF6EC"/>
<g transform="translate(400, 360)">
  <ellipse cx="0" cy="256" rx="150" ry="18" fill="#000" opacity="0.1"/>
  <!-- Lid -->
  <rect x="-140" y="-220" width="280" height="50" rx="12" fill="#D4A24C" stroke="#2A1810" stroke-width="2"/>
  <rect x="-132" y="-220" width="264" height="14" rx="6" fill="#2A1810" opacity="0.18"/>
  <!-- Jar body -->
  <rect x="-130" y="-170" width="260" height="400" rx="22" fill="#6B2C1A" stroke="#2A1810" stroke-width="2"/>
  <!-- Label panel -->
  <rect x="-114" y="-110" width="228" height="240" rx="10" fill="#FBF6EC"/>
  <text x="0" y="-64" font-family="Georgia, serif" font-size="34" font-weight="700" fill="#6B2C1A" text-anchor="middle">Safiya</text>
  <text x="0" y="-38" font-family="Georgia, serif" font-size="14" font-style="italic" fill="#D4A24C" text-anchor="middle">authentic premium</text>
  <line x1="-60" y1="-24" x2="60" y2="-24" stroke="#D4A24C" stroke-width="1"/>
  <text x="0" y="20" font-family="Georgia, serif" font-size="26" font-weight="700" fill="#6B2C1A" text-anchor="middle">Kurma Sukari</text>
  <text x="0" y="48" font-family="Inter, sans-serif" font-size="11" fill="#2A1810" opacity="0.6" text-anchor="middle" letter-spacing="2">PREMIUM · HALAL</text>
  <!-- Size badge -->
  <rect x="-78" y="94" width="156" height="32" rx="16" fill="#B8761F"/>
  <text x="0" y="116" font-family="Inter, sans-serif" font-size="16" font-weight="800" fill="#FFFFFF" text-anchor="middle" letter-spacing="0.5">500G</text>
  <!-- Halal pill bottom of jar -->
  <text x="0" y="216" font-family="Inter, sans-serif" font-size="11" font-weight="600" fill="#FFFFFF" text-anchor="middle" letter-spacing="2.5">HALAL · BPOM RI</text>
  <ellipse cx="-44" cy="266" rx="18" ry="26" fill="#A06030"/><ellipse cx="-44" cy="258" rx="6" ry="8" fill="#2A1810" opacity="0.45"/><ellipse cx="0" cy="266" rx="18" ry="26" fill="#A06030"/><ellipse cx="0" cy="258" rx="6" ry="8" fill="#2A1810" opacity="0.45"/><ellipse cx="44" cy="266" rx="18" ry="26" fill="#A06030"/><ellipse cx="44" cy="258" rx="6" ry="8" fill="#2A1810" opacity="0.45"/><ellipse cx="-44" cy="322" rx="18" ry="26" fill="#A06030"/><ellipse cx="-44" cy="314" rx="6" ry="8" fill="#2A1810" opacity="0.45"/><ellipse cx="0" cy="322" rx="18" ry="26" fill="#A06030"/><ellipse cx="0" cy="314" rx="6" ry="8" fill="#2A1810" opacity="0.45"/><ellipse cx="44" cy="322" rx="18" ry="26" fill="#A06030"/><ellipse cx="44" cy="314" rx="6" ry="8" fill="#2A1810" opacity="0.45"/>
</g>
</svg>
