<svg xmlns="http://www.w3.org/2000/svg" viewBox="0 0 800 800" preserveAspectRatio="xMidYMid slice">
  <rect width="800" height="800" fill="#FBF6EC"/>
<g transform="translate(400, 400)">
  <ellipse cx="0" cy="204" rx="120" ry="14" fill="#000" opacity="0.1"/>
  <rect x="-140" y="-190" width="280" height="380" rx="22" fill="#C9302C" stroke="#2A1810" stroke-width="2"/>
  <!-- Top dark band -->
  <rect x="-140" y="-190" width="280" height="60" rx="22" fill="#2A1810" opacity="0.22"/>
  <!-- Label panel -->
  <rect x="-110" y="-120" width="220" height="180" rx="12" fill="#FBF6EC"/>
  <text x="0" y="-74" font-family="Georgia, serif" font-size="34" font-weight="700" fill="#C9302C" text-anchor="middle">Safiya</text>
  <text x="0" y="-50" font-family="Inter, sans-serif" font-size="11" fill="#D4A24C" text-anchor="middle" letter-spacing="2.5">HEALTHY · PURE · HALAL</text>
  <text x="0" y="-2" font-family="Georgia, serif" font-size="24" font-weight="700" fill="#C9302C" text-anchor="middle">Saffron</text>
  <text x="0" y="24" font-family="Inter, sans-serif" font-size="11" fill="#2A1810" opacity="0.6" text-anchor="middle" letter-spacing="2">PREMIUM GRADE</text>
  <!-- Window with art -->
  <ellipse cx="0" cy="150" rx="120" ry="60" fill="#FBF6EC" opacity="0.6"/>
  <g transform="translate(0,130)"><g transform="translate(0,30)"><path d="M -30 0 Q -10 -10 0 0 Q 10 10 30 0" stroke="#C9302C" stroke-width="6" fill="none" stroke-linecap="round"/><path d="M -20 20 Q 0 10 20 20" stroke="#C9302C" stroke-width="6" fill="none" stroke-linecap="round"/></g></g>
  <!-- Size badge -->
  <rect x="-100" y="98" width="200" height="42" rx="21" fill="#D4A24C"/>
  <text x="0" y="125" font-family="Inter, sans-serif" font-size="18" font-weight="800" fill="#FFFFFF" text-anchor="middle">1G NETTO</text>
  <text x="0" y="160" font-family="Inter, sans-serif" font-size="11" font-weight="600" fill="#FBF6EC" text-anchor="middle" letter-spacing="3">HALAL · BPOM RI</text>
</g>
</svg>
