<svg xmlns="http://www.w3.org/2000/svg" viewBox="0 0 800 800" preserveAspectRatio="xMidYMid slice">
  <rect width="800" height="800" fill="#FBF6EC"/>
<g transform="translate(400, 400)">
  <ellipse cx="0" cy="300" rx="180" ry="21" fill="#000" opacity="0.1"/>
  <!-- Outer transparent wrap (cellophane look) -->
  <rect x="-200" y="-300" width="400" height="600" rx="20" fill="rgba(255,255,255,0.4)" stroke="#6B2C1A" stroke-width="3"/>
  <!-- Top sticker bar -->
  <rect x="-200" y="-300" width="400" height="90" fill="#6B2C1A"/>
  <text x="0" y="-244" font-family="Georgia, serif" font-size="36" font-weight="700" fill="#FBF6EC" text-anchor="middle">Safiya</text>
  <text x="0" y="-220" font-family="Inter, sans-serif" font-size="11" fill="#D4A24C" text-anchor="middle" letter-spacing="3">PREMIUM TUNISIA · TANGKAI</text>
  <text x="0" y="-160" font-family="Georgia, serif" font-size="22" font-weight="700" fill="#6B2C1A" text-anchor="middle">Tunisia Tangkai</text><g transform="translate(-50,-30)">
  <path d="M 0 -100 C -15 -50, -25 0, -10 60 C 0 90, 5 130, 0 160" stroke="#3A6B47" stroke-width="4" fill="none"/>
  <ellipse cx="-30" cy="-70" rx="14" ry="22" fill="#6B2C1A"/>
  <ellipse cx="-46" cy="-30" rx="14" ry="22" fill="#6B2C1A"/>
  <ellipse cx="-38" cy="10" rx="14" ry="22" fill="#6B2C1A"/>
  <ellipse cx="-22" cy="40" rx="14" ry="22" fill="#6B2C1A"/>
  <ellipse cx="-10" cy="80" rx="14" ry="22" fill="#6B2C1A"/>
  <ellipse cx="28" cy="-80" rx="14" ry="22" fill="#6B2C1A"/>
  <ellipse cx="44" cy="-40" rx="14" ry="22" fill="#6B2C1A"/>
  <ellipse cx="36" cy="0" rx="14" ry="22" fill="#6B2C1A"/>
  <ellipse cx="22" cy="40" rx="14" ry="22" fill="#6B2C1A"/>
  <ellipse cx="14" cy="80" rx="14" ry="22" fill="#6B2C1A"/>
</g><g transform="translate(50,-30)">
  <path d="M 0 -100 C -15 -50, -25 0, -10 60 C 0 90, 5 130, 0 160" stroke="#3A6B47" stroke-width="4" fill="none"/>
  <ellipse cx="-30" cy="-70" rx="14" ry="22" fill="#6B2C1A"/>
  <ellipse cx="-46" cy="-30" rx="14" ry="22" fill="#6B2C1A"/>
  <ellipse cx="-38" cy="10" rx="14" ry="22" fill="#6B2C1A"/>
  <ellipse cx="-22" cy="40" rx="14" ry="22" fill="#6B2C1A"/>
  <ellipse cx="-10" cy="80" rx="14" ry="22" fill="#6B2C1A"/>
  <ellipse cx="28" cy="-80" rx="14" ry="22" fill="#6B2C1A"/>
  <ellipse cx="44" cy="-40" rx="14" ry="22" fill="#6B2C1A"/>
  <ellipse cx="36" cy="0" rx="14" ry="22" fill="#6B2C1A"/>
  <ellipse cx="22" cy="40" rx="14" ry="22" fill="#6B2C1A"/>
  <ellipse cx="14" cy="80" rx="14" ry="22" fill="#6B2C1A"/>
</g><!-- Bottom size badge -->
  <rect x="-110" y="220" width="220" height="40" rx="20" fill="#5C3A0B"/>
  <text x="0" y="247" font-family="Inter, sans-serif" font-size="18" font-weight="800" fill="#FFFFFF" text-anchor="middle">1KG · NETTO</text>
</g>
</svg>
