<svg xmlns="http://www.w3.org/2000/svg" viewBox="0 0 800 800" preserveAspectRatio="xMidYMid slice">
  <rect width="800" height="800" fill="#F3E7CF"/>
<g transform="translate(400, 360)">
  <ellipse cx="0" cy="326" rx="180" ry="21" fill="#000" opacity="0.1"/>
  <!-- Lid -->
  <rect x="-170" y="-290" width="340" height="50" rx="12" fill="#2A1810" stroke="#2A1810" stroke-width="2"/>
  <rect x="-162" y="-290" width="324" height="14" rx="6" fill="#2A1810" opacity="0.18"/>
  <!-- Jar body -->
  <rect x="-160" y="-240" width="320" height="540" rx="22" fill="#3A1A0E" stroke="#2A1810" stroke-width="2"/>
  <!-- Label panel -->
  <rect x="-144" y="-180" width="288" height="240" rx="10" fill="#FBF6EC"/>
  <text x="0" y="-134" font-family="Georgia, serif" font-size="34" font-weight="700" fill="#6B2C1A" text-anchor="middle">Safiya</text>
  <text x="0" y="-108" font-family="Georgia, serif" font-size="14" font-style="italic" fill="#D4A24C" text-anchor="middle">authentic premium</text>
  <line x1="-60" y1="-94" x2="60" y2="-94" stroke="#D4A24C" stroke-width="1"/>
  <text x="0" y="-50" font-family="Georgia, serif" font-size="26" font-weight="700" fill="#6B2C1A" text-anchor="middle">Kurma Ajwa</text>
  <text x="0" y="-22" font-family="Inter, sans-serif" font-size="11" fill="#2A1810" opacity="0.6" text-anchor="middle" letter-spacing="2">PREMIUM · HALAL</text>
  <!-- Size badge -->
  <rect x="-78" y="24" width="156" height="32" rx="16" fill="#5C3A0B"/>
  <text x="0" y="46" font-family="Inter, sans-serif" font-size="16" font-weight="800" fill="#FFFFFF" text-anchor="middle" letter-spacing="0.5">1KG</text>
  <!-- Halal pill bottom of jar -->
  <text x="0" y="286" font-family="Inter, sans-serif" font-size="11" font-weight="600" fill="#FFFFFF" text-anchor="middle" letter-spacing="2.5">HALAL · BPOM RI</text>
  <ellipse cx="-66" cy="336" rx="18" ry="26" fill="#2A0F08"/><ellipse cx="-66" cy="328" rx="6" ry="8" fill="#2A1810" opacity="0.45"/><ellipse cx="-22" cy="336" rx="18" ry="26" fill="#2A0F08"/><ellipse cx="-22" cy="328" rx="6" ry="8" fill="#2A1810" opacity="0.45"/><ellipse cx="22" cy="336" rx="18" ry="26" fill="#2A0F08"/><ellipse cx="22" cy="328" rx="6" ry="8" fill="#2A1810" opacity="0.45"/><ellipse cx="66" cy="336" rx="18" ry="26" fill="#2A0F08"/><ellipse cx="66" cy="328" rx="6" ry="8" fill="#2A1810" opacity="0.45"/><ellipse cx="-66" cy="392" rx="18" ry="26" fill="#2A0F08"/><ellipse cx="-66" cy="384" rx="6" ry="8" fill="#2A1810" opacity="0.45"/><ellipse cx="-22" cy="392" rx="18" ry="26" fill="#2A0F08"/><ellipse cx="-22" cy="384" rx="6" ry="8" fill="#2A1810" opacity="0.45"/><ellipse cx="22" cy="392" rx="18" ry="26" fill="#2A0F08"/><ellipse cx="22" cy="384" rx="6" ry="8" fill="#2A1810" opacity="0.45"/><ellipse cx="66" cy="392" rx="18" ry="26" fill="#2A0F08"/><ellipse cx="66" cy="384" rx="6" ry="8" fill="#2A1810" opacity="0.45"/><ellipse cx="-66" cy="448" rx="18" ry="26" fill="#2A0F08"/><ellipse cx="-66" cy="440" rx="6" ry="8" fill="#2A1810" opacity="0.45"/><ellipse cx="-22" cy="448" rx="18" ry="26" fill="#2A0F08"/><ellipse cx="-22" cy="440" rx="6" ry="8" fill="#2A1810" opacity="0.45"/><ellipse cx="22" cy="448" rx="18" ry="26" fill="#2A0F08"/><ellipse cx="22" cy="440" rx="6" ry="8" fill="#2A1810" opacity="0.45"/><ellipse cx="66" cy="448" rx="18" ry="26" fill="#2A0F08"/><ellipse cx="66" cy="440" rx="6" ry="8" fill="#2A1810" opacity="0.45"/>
</g>
</svg>
