<svg xmlns="http://www.w3.org/2000/svg" viewBox="0 0 800 800" preserveAspectRatio="xMidYMid slice">
  <rect width="800" height="800" fill="#FBF6EC"/>
<g transform="translate(400, 400)">
  <ellipse cx="0" cy="200" rx="300" ry="36" fill="#000" opacity="0.1"/>
  <!-- Box: wide rectangle -->
  <rect x="-300" y="-160" width="600" height="320" rx="14" fill="#5B2D14" stroke="#2A1810" stroke-width="2"/>
  <rect x="-300" y="-160" width="600" height="50" fill="#2A1810" opacity="0.18"/>
  <!-- Two corner accents -->
  <path d="M -300 -160 L -300 -110 L -250 -160 Z" fill="#D4A24C"/>
  <path d="M 300 -160 L 300 -110 L 250 -160 Z" fill="#D4A24C"/>
  <!-- Center label panel -->
  <rect x="-200" y="-90" width="400" height="180" rx="12" fill="#FBF6EC"/>
  <text x="0" y="-50" font-family="Georgia, serif" font-size="36" font-weight="700" fill="#5B2D14" text-anchor="middle">Safiya</text>
  <text x="0" y="-24" font-family="Georgia, serif" font-size="14" font-style="italic" fill="#D4A24C" text-anchor="middle">authentic premium · halal · BPOM RI</text>
  <text x="0" y="20" font-family="Georgia, serif" font-size="28" font-weight="700" fill="#5B2D14" text-anchor="middle">Kurma Khalas</text>
  <text x="0" y="46" font-family="Inter, sans-serif" font-size="11" fill="#2A1810" opacity="0.6" text-anchor="middle" letter-spacing="3">SHARE PACK · FAMILY EDITION</text>
  <!-- Size badge wide -->
  <rect x="-110" y="60" width="220" height="22" rx="11" fill="#5C3A0B"/>
  <text x="0" y="76" font-family="Inter, sans-serif" font-size="13" font-weight="800" fill="#FFFFFF" text-anchor="middle" letter-spacing="2">1KG NETTO</text>
  <!-- Side date silhouettes -->
  <g transform="translate(-235, 30)">
    <ellipse cx="0" cy="0" rx="18" ry="24" fill="#D4A24C"/>
    <ellipse cx="0" cy="40" rx="14" ry="20" fill="#D4A24C"/>
  </g>
  <g transform="translate(235, 30)">
    <ellipse cx="0" cy="0" rx="18" ry="24" fill="#D4A24C"/>
    <ellipse cx="0" cy="40" rx="14" ry="20" fill="#D4A24C"/>
  </g>
</g>
</svg>
