<svg xmlns="http://www.w3.org/2000/svg" viewBox="0 0 800 800" preserveAspectRatio="xMidYMid slice">
  <rect width="800" height="800" fill="#FBF6EC"/>
<g transform="translate(400,400)">
  <ellipse cx="0" cy="280" rx="180" ry="20" fill="#000" opacity="0.10"/>
  <rect x="-180" y="-260" width="360" height="540" rx="12" fill="#FBF6EC" stroke="#6B2C1A" stroke-width="3"/>
  <rect x="-180" y="-260" width="360" height="80" fill="#6B2C1A"/>
  <text x="0" y="-208" font-family="Georgia, serif" font-size="34" font-weight="700" fill="#FBF6EC" text-anchor="middle">Safiya</text>
  <text x="0" y="-130" font-family="Georgia, serif" font-size="28" font-weight="700" fill="#6B2C1A" text-anchor="middle">Kurma Tunisia Tangkai</text>
  <!-- branch + dates -->
  <g transform="translate(0,30)">
    <path d="M 0 -100 C -20 -60, -30 -20, -10 40 C 0 70, 10 100, 0 130" stroke="#3A6B47" stroke-width="4" fill="none"/>
    <ellipse cx="-30" cy="-70" rx="14" ry="22" fill="#6B2C1A"/>
    <ellipse cx="-50" cy="-30" rx="14" ry="22" fill="#6B2C1A"/>
    <ellipse cx="-40" cy="10" rx="14" ry="22" fill="#6B2C1A"/>
    <ellipse cx="-20" cy="40" rx="14" ry="22" fill="#6B2C1A"/>
    <ellipse cx="30" cy="-80" rx="14" ry="22" fill="#6B2C1A"/>
    <ellipse cx="50" cy="-40" rx="14" ry="22" fill="#6B2C1A"/>
    <ellipse cx="40" cy="0" rx="14" ry="22" fill="#6B2C1A"/>
    <ellipse cx="20" cy="40" rx="14" ry="22" fill="#6B2C1A"/>
  </g>
  <rect x="-90" y="200" width="180" height="42" rx="21" fill="#D4A24C"/>
  <text x="0" y="228" font-family="Inter, sans-serif" font-size="20" font-weight="700" fill="#2A1810" text-anchor="middle">1kg</text>
</g>
</svg>
