<svg xmlns="http://www.w3.org/2000/svg" viewBox="0 0 800 800" preserveAspectRatio="xMidYMid slice">
  <rect width="800" height="800" fill="#FBF6EC"/>
<g transform="translate(400, 400)">
  <ellipse cx="0" cy="240" rx="220" ry="26" fill="#000" opacity="0.1"/>
  <!-- Box body -->
  <rect x="-220" y="-220" width="440" height="440" rx="18" fill="#5B2D14" stroke="#2A1810" stroke-width="2"/>
  <!-- Ribbon -->
  <rect x="-30" y="-220" width="60" height="440" fill="#D4A24C"/>
  <rect x="-220" y="-30" width="440" height="60" fill="#D4A24C"/>
  <circle r="32" cx="0" cy="0" fill="#D4A24C"/>
  <circle r="22" cx="0" cy="0" fill="#5B2D14"/>
  <!-- Center label sticker -->
  <rect x="-150" y="-170" width="300" height="120" rx="10" fill="#FBF6EC"/>
  <text x="0" y="-130" font-family="Georgia, serif" font-size="32" font-weight="700" fill="#5B2D14" text-anchor="middle">Safiya</text>
  <text x="0" y="-100" font-family="Georgia, serif" font-size="20" font-weight="700" fill="#5B2D14" text-anchor="middle">Kurma Khalas</text>
  <text x="0" y="-78" font-family="Inter, sans-serif" font-size="11" fill="#2A1810" opacity="0.6" text-anchor="middle" letter-spacing="2">GIFT EDITION</text>
  <!-- Bottom size badge -->
  <rect x="-90" y="62" width="180" height="40" rx="20" fill="#B8761F"/>
  <text x="0" y="89" font-family="Inter, sans-serif" font-size="18" font-weight="800" fill="#FFFFFF" text-anchor="middle">500G</text>
  <!-- Bottom date row -->
  <g transform="translate(0, 162)">
    <ellipse cx="-66" cy="0" rx="18" ry="26" fill="#5B2D14"/><ellipse cx="-66" cy="-8" rx="6" ry="8" fill="#2A1810" opacity="0.45"/><ellipse cx="-22" cy="0" rx="18" ry="26" fill="#5B2D14"/><ellipse cx="-22" cy="-8" rx="6" ry="8" fill="#2A1810" opacity="0.45"/><ellipse cx="22" cy="0" rx="18" ry="26" fill="#5B2D14"/><ellipse cx="22" cy="-8" rx="6" ry="8" fill="#2A1810" opacity="0.45"/><ellipse cx="66" cy="0" rx="18" ry="26" fill="#5B2D14"/><ellipse cx="66" cy="-8" rx="6" ry="8" fill="#2A1810" opacity="0.45"/>
  </g>
</g>
</svg>
