<svg xmlns="http://www.w3.org/2000/svg" viewBox="0 0 800 800" preserveAspectRatio="xMidYMid slice">
  <rect width="800" height="800" fill="#FBF6EC"/>
<g transform="translate(400, 400)">
  <ellipse cx="0" cy="284" rx="170" ry="20" fill="#000" opacity="0.1"/>
  <rect x="-190" y="-270" width="380" height="540" rx="22" fill="#A65B5B" stroke="#2A1810" stroke-width="2"/>
  <!-- Top dark band -->
  <rect x="-190" y="-270" width="380" height="60" rx="22" fill="#2A1810" opacity="0.22"/>
  <!-- Label panel -->
  <rect x="-160" y="-200" width="320" height="180" rx="12" fill="#FBF6EC"/>
  <text x="0" y="-154" font-family="Georgia, serif" font-size="34" font-weight="700" fill="#A65B5B" text-anchor="middle">Safiya</text>
  <text x="0" y="-130" font-family="Inter, sans-serif" font-size="11" fill="#D4A24C" text-anchor="middle" letter-spacing="2.5">HEALTHY · PURE · HALAL</text>
  <text x="0" y="-82" font-family="Georgia, serif" font-size="24" font-weight="700" fill="#A65B5B" text-anchor="middle">Garam Himalaya</text>
  <text x="0" y="-56" font-family="Inter, sans-serif" font-size="11" fill="#2A1810" opacity="0.6" text-anchor="middle" letter-spacing="2">PREMIUM GRADE</text>
  <!-- Window with art -->
  <ellipse cx="0" cy="70" rx="120" ry="60" fill="#FBF6EC" opacity="0.6"/>
  <g transform="translate(0,50)"><g transform="translate(0,30)"><circle cx="-30" cy="0" r="10" fill="#F4DDD8"/><circle cx="0" cy="-6" r="12" fill="#F4DDD8"/><circle cx="30" cy="2" r="10" fill="#F4DDD8"/><circle cx="-10" cy="20" r="8" fill="#F4DDD8"/></g></g>
  <!-- Size badge -->
  <rect x="-100" y="178" width="200" height="42" rx="21" fill="#D4A24C"/>
  <text x="0" y="205" font-family="Inter, sans-serif" font-size="18" font-weight="800" fill="#FFFFFF" text-anchor="middle">500G NETTO</text>
  <text x="0" y="240" font-family="Inter, sans-serif" font-size="11" font-weight="600" fill="#FBF6EC" text-anchor="middle" letter-spacing="3">HALAL · BPOM RI</text>
</g>
</svg>
