<svg xmlns="http://www.w3.org/2000/svg" viewBox="0 0 800 800" preserveAspectRatio="xMidYMid slice">
  <rect width="800" height="800" fill="#F3E7CF"/>
<g transform="translate(400,400)">
  <ellipse cx="0" cy="220" rx="180" ry="28" fill="#000" opacity="0.10"/>
  <rect x="-160" y="-240" width="320" height="60" rx="14" fill="#2A1810" stroke="#2A1810" stroke-width="2"/>
  <rect x="-150" y="-182" width="300" height="380" rx="22" fill="#3A1A0E" stroke="#2A1810" stroke-width="2"/>
  <rect x="-130" y="-150" width="260" height="220" rx="14" fill="#FBF6EC"/>
  <text x="0" y="-90" font-family="Georgia, serif" font-size="36" font-weight="700" fill="#6B2C1A" text-anchor="middle">Safiya</text>
  <text x="0" y="-58" font-family="Georgia, serif" font-size="20" font-style="italic" fill="#D4A24C" text-anchor="middle">authentic premium</text>
  <text x="0" y="-10" font-family="Georgia, serif" font-size="32" font-weight="700" fill="#6B2C1A" text-anchor="middle">Kurma Ajwa</text>
  <rect x="-80" y="20" width="160" height="34" rx="17" fill="#D4A24C"/>
  <text x="0" y="43" font-family="Inter, sans-serif" font-size="18" font-weight="700" fill="#2A1810" text-anchor="middle">1kg</text>
  <!-- date silhouettes -->
  <g transform="translate(0,150)">
    <ellipse cx="-50" cy="0" rx="22" ry="34" fill="#2A0F08"/>
    <ellipse cx="0" cy="-6" rx="24" ry="36" fill="#2A0F08"/>
    <ellipse cx="52" cy="2" rx="22" ry="34" fill="#2A0F08"/>
    <ellipse cx="-50" cy="-8" rx="6" ry="8" fill="#2A1810" opacity="0.5"/>
    <ellipse cx="0" cy="-14" rx="6" ry="8" fill="#2A1810" opacity="0.5"/>
    <ellipse cx="52" cy="-6" rx="6" ry="8" fill="#2A1810" opacity="0.5"/>
  </g>
  <text x="0" y="220" font-family="Inter, sans-serif" font-size="12" font-weight="600" fill="#FFFFFF" text-anchor="middle" letter-spacing="3">HALAL · BPOM RI</text>
</g>
</svg>
